<svg xmlns="http://www.w3.org/2000/svg" width="21.637" height="17" viewBox="0 0 21.637 17">
  <g id="envelope" transform="translate(0 -54.82)">
    <g id="Group_91" data-name="Group 91" transform="translate(0 54.82)">
      <path id="Path_108" data-name="Path 108" d="M2.077,60.06q.411.29,2.475,1.721t3.163,2.2q.121.085.513.368t.652.459q.26.175.628.392a3.643,3.643,0,0,0,.694.326,1.913,1.913,0,0,0,.6.109h.024a1.915,1.915,0,0,0,.6-.109,3.646,3.646,0,0,0,.694-.326q.368-.218.628-.392t.652-.459q.392-.284.513-.368l5.651-3.924a5.736,5.736,0,0,0,1.473-1.485,3.189,3.189,0,0,0,.592-1.823A1.948,1.948,0,0,0,19.7,54.82H1.932A1.724,1.724,0,0,0,.5,55.448a2.437,2.437,0,0,0-.5,1.57,2.82,2.82,0,0,0,.664,1.648A5.993,5.993,0,0,0,2.077,60.06Z" transform="translate(0 -54.82)" fill="#603813"/>
      <path id="Path_109" data-name="Path 109" d="M20.429,185.487q-3.96,2.68-6.013,4.166-.688.507-1.117.791a6.892,6.892,0,0,1-1.141.579,3.474,3.474,0,0,1-1.328.3h-.024a3.475,3.475,0,0,1-1.328-.3,6.9,6.9,0,0,1-1.141-.579q-.428-.284-1.117-.791-1.63-1.2-6-4.166A6.4,6.4,0,0,1,0,184.437v9.586a1.86,1.86,0,0,0,.567,1.364,1.86,1.86,0,0,0,1.364.568H19.7a1.938,1.938,0,0,0,1.932-1.932v-9.586A6.658,6.658,0,0,1,20.429,185.487Z" transform="translate(0 -178.956)" fill="#603813"/>
    </g>
  </g>
</svg>
