<svg xmlns="http://www.w3.org/2000/svg" width="20.001" height="20" viewBox="0 0 20.001 20">
  <g id="Page-1" transform="translate(0.003)">
    <g id="_003---Call" data-name="003---Call" transform="translate(-0.003)">
      <path id="Shape" d="M9.28,11.757A8.072,8.072,0,0,1,6.842,7.175a.686.686,0,0,1,.2-.574L8.584,5.057a.69.69,0,0,0,.1-.853L6.222.384A.69.69,0,0,0,5.328.132L1.38,1.992A.686.686,0,0,0,1,2.677,19.087,19.087,0,0,0,6.812,14.223a19.082,19.082,0,0,0,11.546,5.812.686.686,0,0,0,.685-.379l1.86-3.949a.69.69,0,0,0-.25-.892l-3.819-2.459a.69.69,0,0,0-.853.1L14.436,14a.686.686,0,0,1-.574.2A8.072,8.072,0,0,1,9.28,11.757Z" transform="translate(-0.997 -0.039)" fill="#f9b112"/>
      <path id="Shape-2" data-name="Shape" d="M34.552,17.241a.69.69,0,0,1-.69-.69,5.178,5.178,0,0,0-5.172-5.172.69.69,0,0,1,0-1.379,6.559,6.559,0,0,1,6.552,6.552A.69.69,0,0,1,34.552,17.241Z" transform="translate(-18.688 -6.552)" fill="#f9b112"/>
      <path id="Shape-3" data-name="Shape" d="M38,10.69a.69.69,0,0,1-.69-.69A8.63,8.63,0,0,0,28.69,1.379.69.69,0,0,1,28.69,0a10.011,10.011,0,0,1,10,10,.69.69,0,0,1-.69.69Z" transform="translate(-18.688)" fill="#f9b112"/>
    </g>
  </g>
</svg>
