<svg xmlns="http://www.w3.org/2000/svg" width="100" height="99.962" viewBox="0 0 100 99.962">
  <path id="clerk" d="M91.742,54.408l-16.576-3.15c0-.092.027-.179.027-.273v-3.8a16.124,16.124,0,0,0,8.065-13.947,4.831,4.831,0,0,0,.8-9.6l.919-2.132A13.029,13.029,0,0,0,78.418,4.5l-4.5-2.05a16.531,16.531,0,0,0-16.5,1.79L54.924,6.107l-.069.048A10.1,10.1,0,0,0,48.773,10.7a10,10,0,0,0-.371,9.663l1.65,3.3A4.838,4.838,0,0,0,51,33.244a16.124,16.124,0,0,0,8.065,13.947v3.8c0,.094.024.181.027.273l-6.479,1.231V49.373a4.845,4.845,0,0,0-4.839-4.839H5.839A4.845,4.845,0,0,0,1,49.373V71.953a4.845,4.845,0,0,0,4.839,4.839H21.968v11.29H2.613A1.612,1.612,0,0,0,1,89.7v9.677a1.612,1.612,0,0,0,1.613,1.613H99.387A1.612,1.612,0,0,0,101,99.373V65.513a11.281,11.281,0,0,0-9.258-11.1Zm-60.1,22.384h1.613v11.29H31.645Zm4.839,0h6.452v11.29H36.484Zm9.677,0H88.1v11.29H46.161ZM88.1,73.566H84.871V56.386L88.1,57ZM84.871,28.405a1.615,1.615,0,0,1-1.613,1.613V26.792A1.615,1.615,0,0,1,84.871,28.405ZM51.539,12.361a6.859,6.859,0,0,1,5.85-3.311,7.531,7.531,0,0,1,6.279,3.361l.506.76,2.684-1.79-.506-.76a10.733,10.733,0,0,0-6.082-4.394,13.259,13.259,0,0,1,12.311-.844l4.5,2.05a9.8,9.8,0,0,1,4.937,12.8l-.11.253-2.048-4.1a1.614,1.614,0,0,0-2.411-.569L74.871,17.76a12.9,12.9,0,0,1-15.484,0l-2.581-1.935a1.614,1.614,0,0,0-2.411.569l-2.187,4.373-.923-1.845a6.793,6.793,0,0,1,.253-6.56ZM49.387,28.405A1.615,1.615,0,0,1,51,26.792v3.226A1.615,1.615,0,0,1,49.387,28.405Zm4.839,4.839v-9.3l2.19-4.382,1.035.776a16.131,16.131,0,0,0,19.356,0l1.034-.776,2.19,4.382v9.3a12.9,12.9,0,0,1-25.806,0Zm12.9,16.129a16.106,16.106,0,0,0,4.839-.744v2.356a4.839,4.839,0,1,1-9.677,0V48.629A16.106,16.106,0,0,0,67.129,49.373ZM59.85,54.4a8.02,8.02,0,0,0,14.558,0l7.237,1.376V73.566H52.613V55.773ZM5.839,73.566a1.615,1.615,0,0,1-1.613-1.613V49.373A1.615,1.615,0,0,1,5.839,47.76H47.774a1.615,1.615,0,0,1,1.613,1.613V73.566H31.645v-12.9a1.612,1.612,0,0,0-1.613-1.613H23.581a1.612,1.612,0,0,0-1.613,1.613v12.9Zm19.355-11.29h3.226V88.082H25.194ZM88.1,97.76H4.226V91.308H88.1Zm9.677,0H91.323V57.626a8.053,8.053,0,0,1,6.452,7.887Z" transform="translate(-1 -1.023)" fill="#f9b112"/>
</svg>
