<svg xmlns="http://www.w3.org/2000/svg" width="100" height="99.996" viewBox="0 0 100 99.996">
  <g id="piggy-bank_1_" data-name="piggy-bank (1)" transform="translate(0.001 -0.105)">
    <path id="Path_70" data-name="Path 70" d="M78.2,30.214c-.667-.325-1.378-.643-2.112-.956a19.992,19.992,0,1,0-36.119-1.226c-1.061.4-2.1.846-3.127,1.322-4.088-3.74-10.5-4.208-13.216-4.223a3.341,3.341,0,0,0-3.314,2.8,25.551,25.551,0,0,0-.3,4.747,28.913,28.913,0,0,0-3.982.5,3.345,3.345,0,0,0-2.705,3.4A20.47,20.47,0,0,0,15.807,45.9c-.19.212-.382.422-.57.633-1.064,1.187-2.165,2.413-3.288,3.547a13.432,13.432,0,0,1-7.467,2.754A5.18,5.18,0,0,0,.1,59L2.812,72.631c.205,1.149,1.306,2.059,3.269,3.332l.233.153a21.241,21.241,0,0,0,4.72,2.28A25.737,25.737,0,0,1,14.1,79.718a17.543,17.543,0,0,1,5.8,5.048c.277.388.571.76.9,1.138a21.7,21.7,0,0,0,10.873,6.141V95.1a5,5,0,0,0,5,5H48.32a5,5,0,0,0,5-5v-.212c1.394.065,2.787.13,4.193.177.763.027,1.523.038,2.274.038,1.2,0,2.37-.043,3.529-.108V95.1a5,5,0,0,0,5,5H79.974a5,5,0,0,0,5-5V88.651A31.277,31.277,0,0,0,99.966,63.594c.641-13.593-7.9-26.7-21.761-33.38ZM58.316,3.473a16.63,16.63,0,0,1,7.279,31.611,55.015,55.015,0,0,0-16.377-1.033,16.635,16.635,0,0,1,9.1-30.578Zm-34.7,24.99a19.068,19.068,0,0,1,9.961,2.568c-1.589.9-3.193,1.944-4.788,3.07a15.961,15.961,0,0,0-5.441-1.38,21.068,21.068,0,0,1,.268-4.259ZM16.687,36.44a25.043,25.043,0,0,1,5.043-.478c.03,0,.055.015.083.015a.879.879,0,0,0,.155-.011,10.351,10.351,0,0,1,8.33,3.5,5,5,0,0,1,1,5.423,7.535,7.535,0,0,1-6.332,3.567c-3.716,0-7.9-3.761-8.3-12.015Zm79.947,27A27.762,27.762,0,0,1,84.885,84.68a1.643,1.643,0,0,0-1.579-1.239,1.666,1.666,0,0,0-1.666,1.666v10a1.666,1.666,0,0,1-1.666,1.666H68.312A1.666,1.666,0,0,1,66.646,95.1v-5a1.666,1.666,0,0,0-3.332,0v1.541c-1.846.11-3.742.166-5.693.092-1.443-.048-2.872-.114-4.3-.18V90.1a1.666,1.666,0,0,0-3.333,0v5a1.666,1.666,0,0,1-1.666,1.666H36.658A1.666,1.666,0,0,1,34.993,95.1v-8.33a1.666,1.666,0,1,0-3.332,0v1.794a17.249,17.249,0,0,1-8.347-4.845c-.253-.3-.49-.591-.724-.92a20.89,20.89,0,0,0-6.922-6.026,28.64,28.64,0,0,0-3.447-1.5,18.49,18.49,0,0,1-4.025-1.916l-.3-.2a11.382,11.382,0,0,1-1.856-1.373L3.372,58.34a1.845,1.845,0,0,1,.31-1.453,1.807,1.807,0,0,1,1.239-.752c3-.394,7.063-1.359,9.4-3.71,1.181-1.194,2.311-2.452,3.4-3.664l.139-.156a10.038,10.038,0,0,0,7.108,3.182,10.817,10.817,0,0,0,9.319-5.416,8.27,8.27,0,0,0-1.322-8.913,10.508,10.508,0,0,0-1.222-1.343c1.212-.818,2.423-1.592,3.622-2.269a42.394,42.394,0,0,1,6.231-2.832,20.131,20.131,0,0,0,2.957,3.555c-1.879.281-3.069.548-3.269.593a1.667,1.667,0,0,0,.75,3.249c.208-.05,21.071-4.7,33.611,4.707a1.666,1.666,0,0,0,2-2.666,29.716,29.716,0,0,0-7.727-4.1,19.764,19.764,0,0,0,4.348-4.25c.877.365,1.713.73,2.488,1.107,12.66,6.111,20.465,17.974,19.883,30.229Zm0,0" transform="translate(0 0)" fill="#f9b112"/>
    <path id="Path_71" data-name="Path 71" d="M259.367,53.122a1.666,1.666,0,0,0-3.333,0c0,3.7,3.737,6.7,8.33,6.7s8.33-3,8.33-6.7c0-3.235-2.867-5.942-6.664-6.564V39.894c1.916.477,3.332,1.723,3.332,3.156a1.666,1.666,0,0,0,3.332,0c0-3.237-2.867-5.943-6.664-6.566v-.391a1.666,1.666,0,1,0-3.332,0v.4c-3.8.623-6.665,3.332-6.665,6.565S258.9,49,262.7,49.619v6.664c-1.916-.481-3.332-1.727-3.332-3.16Zm10,0c0,1.433-1.416,2.679-3.332,3.156V49.969c1.916.475,3.332,1.721,3.332,3.153Zm-10-10.069c0-1.433,1.415-2.679,3.332-3.156v6.311c-1.917-.476-3.332-1.722-3.332-3.155Zm0,0" transform="translate(-206.049 -27.621)" fill="#f9b112"/>
  </g>
</svg>
