<svg id="route" xmlns="http://www.w3.org/2000/svg" width="100" height="100" viewBox="0 0 100 100">
  <path id="Path_66" data-name="Path 66" d="M18.5,57.848a5.858,5.858,0,1,0,8.5,7h15.18a5.859,5.859,0,0,1,0,11.719H18.75a9.766,9.766,0,0,0,0,19.531H38.281a1.953,1.953,0,0,0,0-3.906H18.75a5.859,5.859,0,0,1,0-11.719H42.188a9.766,9.766,0,1,0,0-19.531H27.008a5.889,5.889,0,0,0-2.544-3.089L39.382,33.373a21.484,21.484,0,1,0-35.795,0Zm2.98,7a1.953,1.953,0,1,1,1.953-1.953A1.955,1.955,0,0,1,21.484,64.844Zm0-60.937A17.58,17.58,0,0,1,36.11,31.237c-.015.022-.03.045-.044.069L21.484,55.231S6.873,31.26,6.858,31.237A17.58,17.58,0,0,1,21.484,3.906Z" fill="#f9b112"/>
  <path id="Path_67" data-name="Path 67" d="M69.766,79.531A9.766,9.766,0,1,0,60,69.766,9.777,9.777,0,0,0,69.766,79.531Zm0-15.625a5.859,5.859,0,1,1-5.859,5.859A5.866,5.866,0,0,1,69.766,63.906Z" transform="translate(-48.281 -48.281)" fill="#f9b112"/>
  <path id="Path_68" data-name="Path 68" d="M300.609,166a21.486,21.486,0,0,0-17.886,33.389L297.585,222.7a5.889,5.889,0,0,0-2.5,3.064H277.953a1.953,1.953,0,0,0,0,3.906h17.133a5.859,5.859,0,1,0,8.548-6.97L318.5,199.389A21.487,21.487,0,0,0,300.609,166Zm0,63.672a1.953,1.953,0,1,1,1.953-1.953A1.955,1.955,0,0,1,300.609,229.672Zm14.626-32.435-14.626,22.942-14.626-22.942a17.578,17.578,0,1,1,29.252,0Z" transform="translate(-222.094 -133.578)" fill="#f9b112"/>
  <path id="Path_69" data-name="Path 69" d="M361.766,226a9.766,9.766,0,1,0,9.766,9.766A9.777,9.777,0,0,0,361.766,226Zm0,15.625a5.859,5.859,0,1,1,5.859-5.859A5.866,5.866,0,0,1,361.766,241.625Z" transform="translate(-283.25 -181.859)" fill="#f9b112"/>
  <circle id="Ellipse_9" data-name="Ellipse 9" cx="1.953" cy="1.953" r="1.953" transform="translate(45.117 92.187)" fill="#f9b112"/>
</svg>
