<svg xmlns="http://www.w3.org/2000/svg" width="124.762" height="100" viewBox="0 0 124.762 100">
  <g id="speed" transform="translate(0 -50.527)">
    <path id="Path_72" data-name="Path 72" d="M217.867,201.646a34.306,34.306,0,1,0-34.306-34.306A34.345,34.345,0,0,0,217.867,201.646ZM192.324,165.5h-5.031a30.506,30.506,0,0,1,7.666-18.471l3.547,3.547a1.838,1.838,0,0,0,2.6-2.6l-3.547-3.547a30.506,30.506,0,0,1,18.471-7.666V141.8a1.838,1.838,0,1,0,3.676,0v-5.031a30.5,30.5,0,0,1,18.471,7.666l-3.547,3.547a1.838,1.838,0,0,0,2.6,2.6l3.547-3.547A30.505,30.505,0,0,1,248.44,165.5H243.41a1.838,1.838,0,0,0,0,3.676h5.031a30.5,30.5,0,0,1-7.666,18.471l-3.547-3.547a1.838,1.838,0,0,0-2.6,2.6l3.547,3.547a30.505,30.505,0,0,1-18.471,7.666v-5.031a1.838,1.838,0,0,0-3.676,0v5.031a30.505,30.505,0,0,1-18.471-7.666L201.1,186.7a1.838,1.838,0,0,0-2.6-2.6l-3.547,3.547a30.505,30.505,0,0,1-7.666-18.471h5.031a1.838,1.838,0,1,0,0-3.675Z" transform="translate(-138.581 -62.289)" fill="#f9b112"/>
    <path id="Path_73" data-name="Path 73" d="M205.736,220.647a41.805,41.805,0,0,1-55.39-60.9,1.838,1.838,0,0,0-2.909-2.246,45.043,45.043,0,0,0-9.461,27.77,45.484,45.484,0,0,0,69.722,38.48,1.838,1.838,0,1,0-1.962-3.108Z" transform="translate(-104.166 -80.224)" fill="#f9b112"/>
    <path id="Path_74" data-name="Path 74" d="M237.878,60.943V53.976a3.453,3.453,0,0,0-3.449-3.449H219.159a3.453,3.453,0,0,0-3.449,3.449v6.965a45.334,45.334,0,0,0-19.732,10.666,1.838,1.838,0,0,0,2.491,2.7,41.8,41.8,0,1,1,56.279,61.82,1.838,1.838,0,0,0,2.459,2.732,45.479,45.479,0,0,0-19.329-77.919Zm-18.492-.766V54.2H234.2v5.978a45.669,45.669,0,0,0-14.817,0Z" transform="translate(-147.508 0)" fill="#f9b112"/>
    <path id="Path_75" data-name="Path 75" d="M317.9,225.413a1.836,1.836,0,0,0,1.6-.942l6.34-6.34a1.838,1.838,0,0,0-2.6-2.6l-3.507,3.506v-8.95a1.838,1.838,0,1,0-3.676,0v13.486a1.838,1.838,0,0,0,1.838,1.838Z" transform="translate(-238.614 -119.075)" fill="#f9b112"/>
    <path id="Path_76" data-name="Path 76" d="M27.12,269.066a1.838,1.838,0,0,0-1.838-1.838H1.838a1.838,1.838,0,0,0,0,3.676H25.282A1.838,1.838,0,0,0,27.12,269.066Z" transform="translate(0 -163.6)" fill="#f9b112"/>
    <path id="Path_77" data-name="Path 77" d="M31.752,227.226H50.317a1.838,1.838,0,1,0,0-3.676H31.752a1.838,1.838,0,1,0,0,3.676Z" transform="translate(-22.584 -130.625)" fill="#f9b112"/>
    <path id="Path_78" data-name="Path 78" d="M70.6,179.871H55.38a1.838,1.838,0,1,0,0,3.676H70.6a1.838,1.838,0,1,0,0-3.676Z" transform="translate(-40.422 -97.649)" fill="#f9b112"/>
    <path id="Path_79" data-name="Path 79" d="M52.154,309.359a1.838,1.838,0,0,0-1.838-1.838H31.752a1.838,1.838,0,1,0,0,3.676H50.317A1.838,1.838,0,0,0,52.154,309.359Z" transform="translate(-22.584 -194.02)" fill="#f9b112"/>
    <path id="Path_80" data-name="Path 80" d="M70.6,351.2H55.38a1.838,1.838,0,1,0,0,3.676H70.6a1.838,1.838,0,1,0,0-3.676Z" transform="translate(-40.422 -226.996)" fill="#f9b112"/>
  </g>
</svg>
