<svg xmlns="http://www.w3.org/2000/svg" width="93.333" height="100" viewBox="0 0 93.333 100">
  <g id="Storage" transform="translate(-4 -2)">
    <path id="Path_93" data-name="Path 93" d="M12,57H8.667a1.667,1.667,0,1,0,0,3.333H12A1.667,1.667,0,1,0,12,57Z" transform="translate(2 36.667)" fill="#f9b112"/>
    <path id="Path_94" data-name="Path 94" d="M12,54H8.667a1.667,1.667,0,1,0,0,3.333H12A1.667,1.667,0,1,0,12,54Z" transform="translate(2 34.667)" fill="#f9b112"/>
    <path id="Path_95" data-name="Path 95" d="M30,57H26.667a1.667,1.667,0,1,0,0,3.333H30A1.667,1.667,0,1,0,30,57Z" transform="translate(14 36.667)" fill="#f9b112"/>
    <path id="Path_96" data-name="Path 96" d="M30,54H26.667a1.667,1.667,0,1,0,0,3.333H30A1.667,1.667,0,1,0,30,54Z" transform="translate(14 34.667)" fill="#f9b112"/>
    <path id="Path_97" data-name="Path 97" d="M48,57H44.667a1.667,1.667,0,1,0,0,3.333H48A1.667,1.667,0,0,0,48,57Z" transform="translate(26 36.667)" fill="#f9b112"/>
    <path id="Path_98" data-name="Path 98" d="M48,54H44.667a1.667,1.667,0,1,0,0,3.333H48A1.667,1.667,0,0,0,48,54Z" transform="translate(26 34.667)" fill="#f9b112"/>
    <path id="Path_99" data-name="Path 99" d="M95.667,65.333H82.333V33.667A1.667,1.667,0,0,0,80.667,32H67.333V3.667A1.667,1.667,0,0,0,65.667,2h-30A1.667,1.667,0,0,0,34,3.667V32H20.667A1.667,1.667,0,0,0,19,33.667V65.333H5.667A1.667,1.667,0,0,0,4,67v33.333A1.667,1.667,0,0,0,5.667,102h90a1.667,1.667,0,0,0,1.667-1.667V67A1.667,1.667,0,0,0,95.667,65.333ZM79,68.667h3.333v6.667H79Zm0-3.333H52.333v-30h8.333v8.333a1.667,1.667,0,0,0,1.667,1.667H69a1.667,1.667,0,0,0,1.667-1.667V35.333H79ZM49,68.667h3.333v6.667H49ZM67.333,35.333V42H64V35.333Zm-15-30V8.667H49V5.333Zm-15,0h8.333v5A1.667,1.667,0,0,0,47.333,12H54a1.667,1.667,0,0,0,1.667-1.667v-5H64V32H37.333Zm0,30V42H34V35.333Zm-15,0h8.333v8.333a1.667,1.667,0,0,0,1.667,1.667H39a1.667,1.667,0,0,0,1.667-1.667V35.333H49v30H22.333Zm0,33.333v6.667H19V68.667Zm-15,0h8.333V77a1.667,1.667,0,0,0,1.667,1.667H24A1.667,1.667,0,0,0,25.667,77V68.667H34v30H7.333Zm30,0h8.333V77a1.667,1.667,0,0,0,1.667,1.667H54A1.667,1.667,0,0,0,55.667,77V68.667H64v30H37.333ZM94,98.667H67.333v-30h8.333V77a1.667,1.667,0,0,0,1.667,1.667H84A1.667,1.667,0,0,0,85.667,77V68.667H94Z" transform="translate(0 0)" fill="#f9b112"/>
    <path id="Path_100" data-name="Path 100" d="M17.667,40.333H21A1.667,1.667,0,0,0,21,37H17.667a1.667,1.667,0,0,0,0,3.333Z" transform="translate(8 23.333)" fill="#f9b112"/>
    <path id="Path_101" data-name="Path 101" d="M17.667,37.333H21A1.667,1.667,0,0,0,21,34H17.667a1.667,1.667,0,0,0,0,3.333Z" transform="translate(8 21.333)" fill="#f9b112"/>
    <path id="Path_102" data-name="Path 102" d="M39,37H35.667a1.667,1.667,0,0,0,0,3.333H39A1.667,1.667,0,0,0,39,37Z" transform="translate(20 23.333)" fill="#f9b112"/>
    <path id="Path_103" data-name="Path 103" d="M39,34H35.667a1.667,1.667,0,0,0,0,3.333H39A1.667,1.667,0,0,0,39,34Z" transform="translate(20 21.333)" fill="#f9b112"/>
    <path id="Path_104" data-name="Path 104" d="M26.667,17.333H30A1.667,1.667,0,1,0,30,14H26.667a1.667,1.667,0,1,0,0,3.333Z" transform="translate(14 8)" fill="#f9b112"/>
    <path id="Path_105" data-name="Path 105" d="M26.667,20.333H30A1.667,1.667,0,1,0,30,17H26.667a1.667,1.667,0,1,0,0,3.333Z" transform="translate(14 10)" fill="#f9b112"/>
  </g>
</svg>
