<svg xmlns="http://www.w3.org/2000/svg" width="99.987" height="100" viewBox="0 0 99.987 100">
  <g id="rocket-launch" transform="translate(0 0.002)">
    <path id="Path_83" data-name="Path 83" d="M2.579,70.663c-.333,0-.521,0-.554,0A2.087,2.087,0,0,1,0,68.518a2.119,2.119,0,0,1,2.141-2.025c.692-.008,71.447,1.25,87.5-60.931A2.083,2.083,0,1,1,93.67,6.6C77.564,69.026,9.445,70.663,2.579,70.663Z" transform="translate(0 12.673)" fill="#603813"/>
    <path id="Path_84" data-name="Path 84" d="M38.062,18.992a2.081,2.081,0,0,1-1.808-1.042l-5.208-9.02-9.02,5.208a2.083,2.083,0,1,1-2.083-3.608L30.767,4.281a2.079,2.079,0,0,1,2.846.762l6.249,10.824a2.084,2.084,0,0,1-.762,2.846A2.033,2.033,0,0,1,38.062,18.992Z" transform="translate(59.846 12.67)" fill="#603813"/>
    <path id="Path_85" data-name="Path 85" d="M23.083,68.328A2.084,2.084,0,0,1,21,66.244V12.083a2.083,2.083,0,1,1,4.166,0V66.244A2.084,2.084,0,0,1,23.083,68.328Z" transform="translate(66.492 31.67)" fill="#603813"/>
    <path id="Path_86" data-name="Path 86" d="M17.083,46.164A2.084,2.084,0,0,1,15,44.081v-25a2.083,2.083,0,0,1,4.166,0v25A2.084,2.084,0,0,1,17.083,46.164Z" transform="translate(47.495 53.834)" fill="#603813"/>
    <path id="Path_87" data-name="Path 87" d="M11.083,36.665A2.084,2.084,0,0,1,9,34.582v-12.5a2.083,2.083,0,1,1,4.166,0v12.5A2.084,2.084,0,0,1,11.083,36.665Z" transform="translate(28.497 63.333)" fill="#603813"/>
    <path id="Path_88" data-name="Path 88" d="M5.083,31.916A2.084,2.084,0,0,1,3,29.833V23.583a2.083,2.083,0,1,1,4.166,0v6.249A2.084,2.084,0,0,1,5.083,31.916Z" transform="translate(9.499 68.082)" fill="#603813"/>
    <path id="Path_89" data-name="Path 89" d="M20.228,49.328a2.092,2.092,0,0,1-1.475-.608L3.772,33.733A2.083,2.083,0,0,1,3.7,30.867L15.97,17.239C24.69,7.169,38.522.228,50.363.007a2,2,0,0,1,1.512.608,2.1,2.1,0,0,1,.608,1.512C52.263,13.969,45.322,27.8,35.219,36.546L21.62,48.794a2.052,2.052,0,0,1-1.392.533ZM8.117,32.188l12.19,12.19L32.465,33.425C41.114,25.938,47.221,14.5,48.188,4.3,37.989,5.269,26.557,11.377,19.1,20Z" transform="translate(10.011 0)" fill="#603813"/>
    <path id="Path_90" data-name="Path 90" d="M12.428,33.885a2.044,2.044,0,0,1-.567-.079A2.094,2.094,0,0,1,10.4,32.285L7.453,19.995a2.084,2.084,0,1,1,4.054-.971l1.954,8.162c3.62-5.662,4.341-12.907,4.416-17.144A2.122,2.122,0,0,1,20,8a2.081,2.081,0,0,1,2.046,2.116c-.175,9.857-3.066,18.082-8.145,23.16a2.086,2.086,0,0,1-1.471.612Z" transform="translate(23.419 25.325)" fill="#603813"/>
    <path id="Path_91" data-name="Path 91" d="M15.167,18.738a1.95,1.95,0,0,1-.487-.058L2.389,15.734a2.082,2.082,0,0,1-.992-3.5C6.476,7.16,14.7,4.269,24.562,4.094a2.024,2.024,0,0,1,2.116,2.046A2.084,2.084,0,0,1,24.633,8.26c-4.241.075-11.482.8-17.144,4.416L15.65,14.63a2.082,2.082,0,0,1-.483,4.108Z" transform="translate(2.503 12.945)" fill="#603813"/>
    <path id="Path_92" data-name="Path 92" d="M2.084,31.657a2.11,2.11,0,0,1-1.475-.608,2.08,2.08,0,0,1-.521-2.071c.687-2.3,4.262-13.907,7.062-16.707a8.655,8.655,0,1,1,12.24,12.24c-2.8,2.8-14.407,6.37-16.707,7.058a2.134,2.134,0,0,1-.6.087ZM13.27,13.9A4.476,4.476,0,0,0,10.1,15.217C8.912,16.4,6.879,21.617,5.288,26.37c4.754-1.592,9.974-3.625,11.153-4.8A4.489,4.489,0,0,0,13.27,13.9Z" transform="translate(0 30.844)" fill="#603813"/>
  </g>
</svg>
